TITLE ""
FILE "LR_black_phrase_S04.mp3" MP3
  TRACK 01 AUDIO
    TITLE "LR_black_phrase_S04_001"
    INDEX 01 00:00:00
  TRACK 02 AUDIO
    TITLE "LR_black_phrase_S04_002"
    INDEX 01 00:00:14
  TRACK 03 AUDIO
    TITLE "LR_black_phrase_S04_003"
    INDEX 01 00:01:25
  TRACK 04 AUDIO
    TITLE "LR_black_phrase_S04_004"
    INDEX 01 00:01:65
  TRACK 05 AUDIO
    TITLE "LR_black_phrase_S04_005"
    INDEX 01 00:04:39
  TRACK 06 AUDIO
    TITLE "LR_black_phrase_S04_006"
    INDEX 01 00:05:39
  TRACK 07 AUDIO
    TITLE "LR_black_phrase_S04_007"
    INDEX 01 00:08:12
  TRACK 08 AUDIO
    TITLE "LR_black_phrase_S04_008"
    INDEX 01 00:08:49
  TRACK 09 AUDIO
    TITLE "LR_black_phrase_S04_009"
    INDEX 01 00:11:41
  TRACK 10 AUDIO
    TITLE "LR_black_phrase_S04_010"
    INDEX 01 00:11:69
  TRACK 11 AUDIO
    TITLE "LR_black_phrase_S04_011"
    INDEX 01 00:14:61
  TRACK 12 AUDIO
    TITLE "LR_black_phrase_S04_012"
    INDEX 01 00:15:65
  TRACK 13 AUDIO
    TITLE "LR_black_phrase_S04_013"
    INDEX 01 00:17:01
  TRACK 14 AUDIO
    TITLE "LR_black_phrase_S04_014"
    INDEX 01 00:17:38
  TRACK 15 AUDIO
    TITLE "LR_black_phrase_S04_015"
    INDEX 01 00:20:27
  TRACK 16 AUDIO
    TITLE "LR_black_phrase_S04_016"
    INDEX 01 00:21:24
  TRACK 17 AUDIO
    TITLE "LR_black_phrase_S04_017"
    INDEX 01 00:23:39
  TRACK 18 AUDIO
    TITLE "LR_black_phrase_S04_018"
    INDEX 01 00:24:03
  TRACK 19 AUDIO
    TITLE "LR_black_phrase_S04_019"
    INDEX 01 00:26:16
  TRACK 20 AUDIO
    TITLE "LR_black_phrase_S04_020"
    INDEX 01 00:26:45
  TRACK 21 AUDIO
    TITLE "LR_black_phrase_S04_021"
    INDEX 01 00:28:58
  TRACK 22 AUDIO
    TITLE "LR_black_phrase_S04_022"
    INDEX 01 00:29:57
  TRACK 23 AUDIO
    TITLE "LR_black_phrase_S04_023"
    INDEX 01 00:30:53
  TRACK 24 AUDIO
    TITLE "LR_black_phrase_S04_024"
    INDEX 01 00:31:15
  TRACK 25 AUDIO
    TITLE "LR_black_phrase_S04_025"
    INDEX 01 00:32:18
  TRACK 26 AUDIO
    TITLE "LR_black_phrase_S04_026"
    INDEX 01 00:33:14
  TRACK 27 AUDIO
    TITLE "LR_black_phrase_S04_027"
    INDEX 01 00:35:09
  TRACK 28 AUDIO
    TITLE "LR_black_phrase_S04_028"
    INDEX 01 00:35:42
  TRACK 29 AUDIO
    TITLE "LR_black_phrase_S04_029"
    INDEX 01 00:37:49
  TRACK 30 AUDIO
    TITLE "LR_black_phrase_S04_030"
    INDEX 01 00:37:70
  TRACK 31 AUDIO
    TITLE "LR_black_phrase_S04_031"
    INDEX 01 00:40:00
  TRACK 32 AUDIO
    TITLE "LR_black_phrase_S04_032"
    INDEX 01 00:40:73
  TRACK 33 AUDIO
    TITLE "LR_black_phrase_S04_033"
    INDEX 01 00:42:13
  TRACK 34 AUDIO
    TITLE "LR_black_phrase_S04_034"
    INDEX 01 00:42:48
  TRACK 35 AUDIO
    TITLE "LR_black_phrase_S04_035"
    INDEX 01 00:45:46
  TRACK 36 AUDIO
    TITLE "LR_black_phrase_S04_036"
    INDEX 01 00:46:46
  TRACK 37 AUDIO
    TITLE "LR_black_phrase_S04_037"
    INDEX 01 00:48:66
  TRACK 38 AUDIO
    TITLE "LR_black_phrase_S04_038"
    INDEX 01 00:49:22
  TRACK 39 AUDIO
    TITLE "LR_black_phrase_S04_039"
    INDEX 01 00:51:43
  TRACK 40 AUDIO
    TITLE "LR_black_phrase_S04_040"
    INDEX 01 00:51:63
  TRACK 41 AUDIO
    TITLE "LR_black_phrase_S04_041"
    INDEX 01 00:54:08
  TRACK 42 AUDIO
    TITLE "LR_black_phrase_S04_042"
    INDEX 01 00:55:07
  TRACK 43 AUDIO
    TITLE "LR_black_phrase_S04_043"
    INDEX 01 00:56:05
  TRACK 44 AUDIO
    TITLE "LR_black_phrase_S04_044"
    INDEX 01 00:56:44
  TRACK 45 AUDIO
    TITLE "LR_black_phrase_S04_045"
    INDEX 01 00:58:31
  TRACK 46 AUDIO
    TITLE "LR_black_phrase_S04_046"
    INDEX 01 00:59:33
  TRACK 47 AUDIO
    TITLE "LR_black_phrase_S04_047"
    INDEX 01 01:02:11
  TRACK 48 AUDIO
    TITLE "LR_black_phrase_S04_048"
    INDEX 01 01:02:51
  TRACK 49 AUDIO
    TITLE "LR_black_phrase_S04_049"
    INDEX 01 01:04:61
  TRACK 50 AUDIO
    TITLE "LR_black_phrase_S04_050"
    INDEX 01 01:05:16
  TRACK 51 AUDIO
    TITLE "LR_black_phrase_S04_051"
    INDEX 01 01:07:24
  TRACK 52 AUDIO
    TITLE "LR_black_phrase_S04_052"
    INDEX 01 01:08:30
  TRACK 53 AUDIO
    TITLE "LR_black_phrase_S04_053"
    INDEX 01 01:09:53
  TRACK 54 AUDIO
    TITLE "LR_black_phrase_S04_054"
    INDEX 01 01:10:17
  TRACK 55 AUDIO
    TITLE "LR_black_phrase_S04_055"
    INDEX 01 01:12:47
  TRACK 56 AUDIO
    TITLE "LR_black_phrase_S04_056"
    INDEX 01 01:13:45
  TRACK 57 AUDIO
    TITLE "LR_black_phrase_S04_057"
    INDEX 01 01:15:57
  TRACK 58 AUDIO
    TITLE "LR_black_phrase_S04_058"
    INDEX 01 01:16:19
  TRACK 59 AUDIO
    TITLE "LR_black_phrase_S04_059"
    INDEX 01 01:18:54
  TRACK 60 AUDIO
    TITLE "LR_black_phrase_S04_060"
    INDEX 01 01:19:08
  TRACK 61 AUDIO
    TITLE "LR_black_phrase_S04_061"
    INDEX 01 01:21:42
  TRACK 62 AUDIO
    TITLE "LR_black_phrase_S04_062"
    INDEX 01 01:22:40
  TRACK 63 AUDIO
    TITLE "LR_black_phrase_S04_063"
    INDEX 01 01:23:57
  TRACK 64 AUDIO
    TITLE "LR_black_phrase_S04_064"
    INDEX 01 01:24:17
  TRACK 65 AUDIO
    TITLE "LR_black_phrase_S04_065"
    INDEX 01 01:26:30
  TRACK 66 AUDIO
    TITLE "LR_black_phrase_S04_066"
    INDEX 01 01:27:27
  TRACK 67 AUDIO
    TITLE "LR_black_phrase_S04_067"
    INDEX 01 01:29:32
  TRACK 68 AUDIO
    TITLE "LR_black_phrase_S04_068"
    INDEX 01 01:29:65
  TRACK 69 AUDIO
    TITLE "LR_black_phrase_S04_069"
    INDEX 01 01:31:70
  TRACK 70 AUDIO
    TITLE "LR_black_phrase_S04_070"
    INDEX 01 01:32:14
  TRACK 71 AUDIO
    TITLE "LR_black_phrase_S04_071"
    INDEX 01 01:34:19
  TRACK 72 AUDIO
    TITLE "LR_black_phrase_S04_072"
    INDEX 01 01:35:15
  TRACK 73 AUDIO
    TITLE "LR_black_phrase_S04_073"
    INDEX 01 01:36:20
  TRACK 74 AUDIO
    TITLE "LR_black_phrase_S04_074"
    INDEX 01 01:36:55
  TRACK 75 AUDIO
    TITLE "LR_black_phrase_S04_075"
    INDEX 01 01:38:60
  TRACK 76 AUDIO
    TITLE "LR_black_phrase_S04_076"
    INDEX 01 01:39:58
  TRACK 77 AUDIO
    TITLE "LR_black_phrase_S04_077"
    INDEX 01 01:42:07
  TRACK 78 AUDIO
    TITLE "LR_black_phrase_S04_078"
    INDEX 01 01:42:40
  TRACK 79 AUDIO
    TITLE "LR_black_phrase_S04_079"
    INDEX 01 01:44:41
  TRACK 80 AUDIO
    TITLE "LR_black_phrase_S04_080"
    INDEX 01 01:44:65
  TRACK 81 AUDIO
    TITLE "LR_black_phrase_S04_081"
    INDEX 01 01:46:67
  TRACK 82 AUDIO
    TITLE "LR_black_phrase_S04_082"
    INDEX 01 01:47:69
  TRACK 83 AUDIO
    TITLE "LR_black_phrase_S04_083"
    INDEX 01 01:49:15
  TRACK 84 AUDIO
    TITLE "LR_black_phrase_S04_084"
    INDEX 01 01:49:54
  TRACK 85 AUDIO
    TITLE "LR_black_phrase_S04_085"
    INDEX 01 01:52:00
  TRACK 86 AUDIO
    TITLE "LR_black_phrase_S04_086"
    INDEX 01 01:52:72
  TRACK 87 AUDIO
    TITLE "LR_black_phrase_S04_087"
    INDEX 01 01:54:49
  TRACK 88 AUDIO
    TITLE "LR_black_phrase_S04_088"
    INDEX 01 01:55:12
  TRACK 89 AUDIO
    TITLE "LR_black_phrase_S04_089"
    INDEX 01 01:57:18
  TRACK 90 AUDIO
    TITLE "LR_black_phrase_S04_090"
    INDEX 01 01:57:48
  TRACK 91 AUDIO
    TITLE "LR_black_phrase_S04_091"
    INDEX 01 01:59:54
  TRACK 92 AUDIO
    TITLE "LR_black_phrase_S04_092"
    INDEX 01 02:00:58
  TRACK 93 AUDIO
    TITLE "LR_black_phrase_S04_093"
    INDEX 01 02:02:18
  TRACK 94 AUDIO
    TITLE "LR_black_phrase_S04_094"
    INDEX 01 02:02:55
  TRACK 95 AUDIO
    TITLE "LR_black_phrase_S04_095"
    INDEX 01 02:03:68
  TRACK 96 AUDIO
    TITLE "LR_black_phrase_S04_096"
    INDEX 01 02:04:63
  TRACK 97 AUDIO
    TITLE "LR_black_phrase_S04_097"
    INDEX 01 02:06:58
  TRACK 98 AUDIO
    TITLE "LR_black_phrase_S04_098"
    INDEX 01 02:07:23
  TRACK 99 AUDIO
    TITLE "LR_black_phrase_S04_099"
    INDEX 01 02:09:23
  TRACK 100 AUDIO
    TITLE "LR_black_phrase_S04_100"
    INDEX 01 02:09:53
  TRACK 101 AUDIO
    TITLE "LR_black_phrase_S04_101"
    INDEX 01 02:11:54
  TRACK 102 AUDIO
    TITLE "LR_black_phrase_S04_102"
    INDEX 01 02:12:57
  TRACK 103 AUDIO
    TITLE "LR_black_phrase_S04_103"
    INDEX 01 02:14:03
  TRACK 104 AUDIO
    TITLE "LR_black_phrase_S04_104"
    INDEX 01 02:14:40
  TRACK 105 AUDIO
    TITLE "LR_black_phrase_S04_105"
    INDEX 01 02:16:02
  TRACK 106 AUDIO
    TITLE "LR_black_phrase_S04_106"
    INDEX 01 02:17:01
  TRACK 107 AUDIO
    TITLE "LR_black_phrase_S04_107"
    INDEX 01 02:19:49
  TRACK 108 AUDIO
    TITLE "LR_black_phrase_S04_108"
    INDEX 01 02:20:10
  TRACK 109 AUDIO
    TITLE "LR_black_phrase_S04_109"
    INDEX 01 02:22:46
  TRACK 110 AUDIO
    TITLE "LR_black_phrase_S04_110"
    INDEX 01 02:22:67
  TRACK 111 AUDIO
    TITLE "LR_black_phrase_S04_111"
    INDEX 01 02:25:32
  TRACK 112 AUDIO
    TITLE "LR_black_phrase_S04_112"
    INDEX 01 02:26:28
  TRACK 113 AUDIO
    TITLE "LR_black_phrase_S04_113"
    INDEX 01 02:27:45
  TRACK 114 AUDIO
    TITLE "LR_black_phrase_S04_114"
    INDEX 01 02:28:07
  TRACK 115 AUDIO
    TITLE "LR_black_phrase_S04_115"
    INDEX 01 02:30:55
  TRACK 116 AUDIO
    TITLE "LR_black_phrase_S04_116"
    INDEX 01 02:31:54
  TRACK 117 AUDIO
    TITLE "LR_black_phrase_S04_117"
    INDEX 01 02:34:16
  TRACK 118 AUDIO
    TITLE "LR_black_phrase_S04_118"
    INDEX 01 02:34:49
  TRACK 119 AUDIO
    TITLE "LR_black_phrase_S04_119"
    INDEX 01 02:37:37
  TRACK 120 AUDIO
    TITLE "LR_black_phrase_S04_120"
    INDEX 01 02:37:57
  TRACK 121 AUDIO
    TITLE "LR_black_phrase_S04_121"
    INDEX 01 02:40:44
  TRACK 122 AUDIO
    TITLE "LR_black_phrase_S04_122"
    INDEX 01 02:41:45
  TRACK 123 AUDIO
    TITLE "LR_black_phrase_S04_123"
    INDEX 01 02:42:62
  TRACK 124 AUDIO
    TITLE "LR_black_phrase_S04_124"
    INDEX 01 02:43:26
  TRACK 125 AUDIO
    TITLE "LR_black_phrase_S04_125"
    INDEX 01 02:47:03
  TRACK 126 AUDIO
    TITLE "LR_black_phrase_S04_126"
    INDEX 01 02:48:00
  TRACK 127 AUDIO
    TITLE "LR_black_phrase_S04_127"
    INDEX 01 02:51:02
  TRACK 128 AUDIO
    TITLE "LR_black_phrase_S04_128"
    INDEX 01 02:51:40
  TRACK 129 AUDIO
    TITLE "LR_black_phrase_S04_129"
    INDEX 01 02:54:30
  TRACK 130 AUDIO
    TITLE "LR_black_phrase_S04_130"
    INDEX 01 02:54:59
  TRACK 131 AUDIO
    TITLE "LR_black_phrase_S04_131"
    INDEX 01 02:57:50
  TRACK 132 AUDIO
    TITLE "LR_black_phrase_S04_132"
    INDEX 01 02:58:55
  TRACK 133 AUDIO
    TITLE "LR_black_phrase_S04_133"
    INDEX 01 02:59:61
  TRACK 134 AUDIO
    TITLE "LR_black_phrase_S04_134"
    INDEX 01 03:00:25
  TRACK 135 AUDIO
    TITLE "LR_black_phrase_S04_135"
    INDEX 01 03:02:63
  TRACK 136 AUDIO
    TITLE "LR_black_phrase_S04_136"
    INDEX 01 03:03:62
  TRACK 137 AUDIO
    TITLE "LR_black_phrase_S04_137"
    INDEX 01 03:05:36
  TRACK 138 AUDIO
    TITLE "LR_black_phrase_S04_138"
    INDEX 01 03:06:00
  TRACK 139 AUDIO
    TITLE "LR_black_phrase_S04_139"
    INDEX 01 03:07:74
  TRACK 140 AUDIO
    TITLE "LR_black_phrase_S04_140"
    INDEX 01 03:08:30
  TRACK 141 AUDIO
    TITLE "LR_black_phrase_S04_141"
    INDEX 01 03:10:29
  TRACK 142 AUDIO
    TITLE "LR_black_phrase_S04_142"
    INDEX 01 03:11:30
  TRACK 143 AUDIO
    TITLE "LR_black_phrase_S04_143"
    INDEX 01 03:12:51
  TRACK 144 AUDIO
    TITLE "LR_black_phrase_S04_144"
    INDEX 01 03:13:14
  TRACK 145 AUDIO
    TITLE "LR_black_phrase_S04_145"
    INDEX 01 03:15:60
  TRACK 146 AUDIO
    TITLE "LR_black_phrase_S04_146"
    INDEX 01 03:16:55
  TRACK 147 AUDIO
    TITLE "LR_black_phrase_S04_147"
    INDEX 01 03:19:34
  TRACK 148 AUDIO
    TITLE "LR_black_phrase_S04_148"
    INDEX 01 03:19:69
  TRACK 149 AUDIO
    TITLE "LR_black_phrase_S04_149"
    INDEX 01 03:22:42
  TRACK 150 AUDIO
    TITLE "LR_black_phrase_S04_150"
    INDEX 01 03:22:62
  TRACK 151 AUDIO
    TITLE "LR_black_phrase_S04_151"
    INDEX 01 03:25:34
  TRACK 152 AUDIO
    TITLE "LR_black_phrase_S04_152"
    INDEX 01 03:26:30
  TRACK 153 AUDIO
    TITLE "LR_black_phrase_S04_153"
    INDEX 01 03:27:45
  TRACK 154 AUDIO
    TITLE "LR_black_phrase_S04_154"
    INDEX 01 03:28:07
  TRACK 155 AUDIO
    TITLE "LR_black_phrase_S04_155"
    INDEX 01 03:30:24
  TRACK 156 AUDIO
    TITLE "LR_black_phrase_S04_156"
    INDEX 01 03:31:25
  TRACK 157 AUDIO
    TITLE "LR_black_phrase_S04_157"
    INDEX 01 03:33:01
  TRACK 158 AUDIO
    TITLE "LR_black_phrase_S04_158"
    INDEX 01 03:33:34
  TRACK 159 AUDIO
    TITLE "LR_black_phrase_S04_159"
    INDEX 01 03:35:35
  TRACK 160 AUDIO
    TITLE "LR_black_phrase_S04_160"
    INDEX 01 03:35:56
  TRACK 161 AUDIO
    TITLE "LR_black_phrase_S04_161"
    INDEX 01 03:37:57
  TRACK 162 AUDIO
    TITLE "LR_black_phrase_S04_162"
    INDEX 01 03:38:61
  TRACK 163 AUDIO
    TITLE "LR_black_phrase_S04_163"
    INDEX 01 03:40:16
  TRACK 164 AUDIO
    TITLE "LR_black_phrase_S04_164"
    INDEX 01 03:40:56
  TRACK 165 AUDIO
    TITLE "LR_black_phrase_S04_165"
    INDEX 01 03:43:46
  TRACK 166 AUDIO
    TITLE "LR_black_phrase_S04_166"
    INDEX 01 03:44:49
  TRACK 167 AUDIO
    TITLE "LR_black_phrase_S04_167"
    INDEX 01 03:46:62
  TRACK 168 AUDIO
    TITLE "LR_black_phrase_S04_168"
    INDEX 01 03:47:26
  TRACK 169 AUDIO
    TITLE "LR_black_phrase_S04_169"
    INDEX 01 03:49:51
  TRACK 170 AUDIO
    TITLE "LR_black_phrase_S04_170"
    INDEX 01 03:50:05
  TRACK 171 AUDIO
    TITLE "LR_black_phrase_S04_171"
    INDEX 01 03:52:27
  TRACK 172 AUDIO
    TITLE "LR_black_phrase_S04_172"
    INDEX 01 03:53:33
  TRACK 173 AUDIO
    TITLE "LR_black_phrase_S04_173"
    INDEX 01 03:54:46
  TRACK 174 AUDIO
    TITLE "LR_black_phrase_S04_174"
    INDEX 01 03:55:08
  TRACK 175 AUDIO
    TITLE "LR_black_phrase_S04_175"
    INDEX 01 03:57:54
  TRACK 176 AUDIO
    TITLE "LR_black_phrase_S04_176"
    INDEX 01 03:58:52
  TRACK 177 AUDIO
    TITLE "LR_black_phrase_S04_177"
    INDEX 01 04:00:43
  TRACK 178 AUDIO
    TITLE "LR_black_phrase_S04_178"
    INDEX 01 04:01:05
  TRACK 179 AUDIO
    TITLE "LR_black_phrase_S04_179"
    INDEX 01 04:02:59
  TRACK 180 AUDIO
    TITLE "LR_black_phrase_S04_180"
    INDEX 01 04:03:14
  TRACK 181 AUDIO
    TITLE "LR_black_phrase_S04_181"
    INDEX 01 04:04:70
  TRACK 182 AUDIO
    TITLE "LR_black_phrase_S04_182"
    INDEX 01 04:05:69
  TRACK 183 AUDIO
    TITLE "LR_black_phrase_S04_183"
    INDEX 01 04:07:02
  TRACK 184 AUDIO
    TITLE "LR_black_phrase_S04_184"
    INDEX 01 04:07:41
  TRACK 185 AUDIO
    TITLE "LR_black_phrase_S04_185"
    INDEX 01 04:09:51
  TRACK 186 AUDIO
    TITLE "LR_black_phrase_S04_186"
    INDEX 01 04:10:51
  TRACK 187 AUDIO
    TITLE "LR_black_phrase_S04_187"
    INDEX 01 04:13:00
  TRACK 188 AUDIO
    TITLE "LR_black_phrase_S04_188"
    INDEX 01 04:13:33
  TRACK 189 AUDIO
    TITLE "LR_black_phrase_S04_189"
    INDEX 01 04:15:64
  TRACK 190 AUDIO
    TITLE "LR_black_phrase_S04_190"
    INDEX 01 04:16:10
  TRACK 191 AUDIO
    TITLE "LR_black_phrase_S04_191"
    INDEX 01 04:18:43
  TRACK 192 AUDIO
    TITLE "LR_black_phrase_S04_192"
    INDEX 01 04:19:38
  TRACK 193 AUDIO
    TITLE "LR_black_phrase_S04_193"
    INDEX 01 04:20:53
  TRACK 194 AUDIO
    TITLE "LR_black_phrase_S04_194"
    INDEX 01 04:21:19
  TRACK 195 AUDIO
    TITLE "LR_black_phrase_S04_195"
    INDEX 01 04:23:65
  TRACK 196 AUDIO
    TITLE "LR_black_phrase_S04_196"
    INDEX 01 04:24:65
  TRACK 197 AUDIO
    TITLE "LR_black_phrase_S04_197"
    INDEX 01 04:26:52
  TRACK 198 AUDIO
    TITLE "LR_black_phrase_S04_198"
    INDEX 01 04:27:10
  TRACK 199 AUDIO
    TITLE "LR_black_phrase_S04_199"
    INDEX 01 04:29:05
  TRACK 200 AUDIO
    TITLE "LR_black_phrase_S04_200"
    INDEX 01 04:29:25
  TRACK 201 AUDIO
    TITLE "LR_black_phrase_S04_201"
    INDEX 01 04:31:20
